<svg id="visual" viewBox="0 0 900 600" width="900" height="600" xmlns="http://www.w3.org/2000/svg" xmlns:xlink="http://www.w3.org/1999/xlink" version="1.1"><rect width="900" height="600" fill="#EF233C"></rect><g><g transform="translate(372 210)"><path d="M86 -51.4C99.5 -26.4 90.1 10.1 71.9 37.9C53.8 65.7 26.9 84.9 0.1 84.8C-26.7 84.7 -53.4 65.5 -67.5 40C-81.6 14.5 -83.1 -17.2 -69.8 -42.2C-56.5 -67.1 -28.2 -85.4 4 -87.7C36.3 -90.1 72.6 -76.5 86 -51.4Z" stroke="#F7760E" fill="none" stroke-width="15"></path></g><g transform="translate(814 322)"><path d="M51.7 -28.2C63.3 -9.8 66.4 15.2 56.4 34.1C46.4 52.9 23.2 65.7 4 63.4C-15.3 61.1 -30.5 43.8 -38.5 26C-46.6 8.3 -47.4 -9.8 -39.8 -25.9C-32.2 -41.9 -16.1 -56 2 -57.2C20.1 -58.3 40.1 -46.5 51.7 -28.2Z" stroke="#F7760E" fill="none" stroke-width="15"></path></g><g transform="translate(315 595)"><path d="M59.4 -35.1C72.4 -11.7 75.3 16.7 63.8 40C52.2 63.2 26.1 81.2 -0.5 81.5C-27 81.8 -54.1 64.3 -66.3 40.7C-78.5 17.1 -76 -12.6 -62.4 -36.3C-48.9 -60 -24.5 -77.6 -0.6 -77.2C23.2 -76.8 46.3 -58.5 59.4 -35.1Z" stroke="#F7760E" fill="none" stroke-width="15"></path></g><g transform="translate(571 32)"><path d="M82 -45.4C96.8 -21.7 92.8 14.8 76 39.2C59.2 63.7 29.6 76.2 0.1 76.1C-29.4 76.1 -58.9 63.5 -70.7 41.9C-82.5 20.3 -76.7 -10.3 -62 -33.9C-47.2 -57.5 -23.6 -74.2 5 -77C33.6 -79.9 67.2 -69.1 82 -45.4Z" stroke="#F7760E" fill="none" stroke-width="15"></path></g><g transform="translate(82 391)"><path d="M60.2 -33C71.1 -15.9 68.3 11 56 30.9C43.7 50.8 21.8 63.7 0.4 63.5C-21 63.3 -42.1 49.9 -54.8 29.8C-67.4 9.7 -71.7 -17.1 -61.2 -34C-50.7 -50.8 -25.3 -57.8 -0.3 -57.6C24.7 -57.4 49.3 -50 60.2 -33Z" stroke="#F7760E" fill="none" stroke-width="15"></path></g><g transform="translate(161 13)"><path d="M70.4 -37.5C85 -15.3 86.5 17.7 72.5 41.5C58.6 65.3 29.3 79.8 0.5 79.5C-28.4 79.3 -56.8 64.2 -68.6 41.6C-80.5 19.1 -75.8 -11 -61.6 -32.9C-47.4 -54.9 -23.7 -68.7 2.1 -69.9C27.9 -71.1 55.7 -59.7 70.4 -37.5Z" stroke="#F7760E" fill="none" stroke-width="15"></path></g><g transform="translate(771 591)"><path d="M56.8 -32.6C70 -10 74.5 17.8 63.6 39.1C52.6 60.3 26.3 75.1 3 73.4C-20.4 71.7 -40.7 53.5 -51.3 32.4C-61.9 11.3 -62.8 -12.7 -52.6 -33.6C-42.4 -54.4 -21.2 -72.1 0.3 -72.3C21.8 -72.5 43.7 -55.1 56.8 -32.6Z" stroke="#F7760E" fill="none" stroke-width="15"></path></g></g></svg>